<svg width="24" height="24" viewBox="0 0 24 24" fill="none" xmlns="http://www.w3.org/2000/svg">
<rect width="24" height="24" rx="12" fill="#071A27"/>
<path d="M15.6534 14.0695C15.5638 13.9799 15.5072 13.8573 15.5072 13.7159L15.5072 8.49274L10.2841 8.49274C10.0107 8.49274 9.78439 8.26647 9.78439 7.99306C9.78439 7.71964 10.0107 7.49337 10.2841 7.49337L16.0069 7.49337C16.2803 7.49337 16.5066 7.71964 16.5066 7.99306L16.5066 13.7159C16.5066 13.9893 16.2803 14.2156 16.0069 14.2156C15.8702 14.2203 15.7429 14.159 15.6534 14.0695Z" fill="white"/>
<path d="M7.63947 16.3606C7.44619 16.1673 7.44619 15.8468 7.63947 15.6535L15.5732 7.71976C15.7665 7.52649 16.087 7.52649 16.2803 7.71976C16.4736 7.91304 16.4736 8.2336 16.2803 8.42687L8.34657 16.3606C8.1533 16.5539 7.83274 16.5539 7.63947 16.3606Z" fill="white"/>
</svg>
