<svg width="22" height="22" viewBox="0 0 22 22" fill="none" xmlns="http://www.w3.org/2000/svg">
<path d="M21.7078 11.2305C21.7078 10.5546 21.6454 9.91295 21.5385 9.28839H11.4658V13.1469H17.2331C16.9746 14.4132 16.2169 15.4826 15.0938 16.2098V18.7765H18.5345C20.549 16.9884 21.7078 14.3533 21.7078 11.2305Z" fill="#4285F4"/>
<path d="M11.469 21.2625C14.357 21.2625 16.7727 20.3385 18.5376 18.7729L15.0969 16.2062C14.1342 16.8222 12.913 17.1986 11.469 17.1986C8.67893 17.1986 6.31676 15.3934 5.46995 12.9551H1.92224V15.5987C3.67827 18.9525 7.28837 21.2625 11.469 21.2625Z" fill="#34A853"/>
<path d="M5.46651 12.9573C5.24367 12.3413 5.12779 11.6825 5.12779 10.9981C5.12779 10.3136 5.25258 9.65487 5.46651 9.03887V6.3952H1.91881C1.18787 7.7812 0.768921 9.33831 0.768921 10.9981C0.768921 12.6579 1.18787 14.215 1.91881 15.601L5.46651 12.9573Z" fill="#FBBC05"/>
<path d="M11.469 4.79436C13.0467 4.79436 14.4551 5.31625 15.5693 6.33436L18.6179 3.40836C16.7727 1.74858 14.357 0.730469 11.469 0.730469C7.28837 0.730469 3.67827 3.04047 1.92224 6.39425L5.46995 9.03791C6.31676 6.59958 8.67893 4.79436 11.469 4.79436Z" fill="#EA4335"/>
</svg>
