<svg width="17" height="17" viewBox="0 0 17 17" fill="none" xmlns="http://www.w3.org/2000/svg">
<path d="M9.17832 0.67362C10.1516 -0.591465 12.1734 0.0369457 12.2581 1.63084L12.4651 5.52745C12.4917 6.02856 12.7359 6.49304 13.1336 6.79903L16.2264 9.17836C17.4915 10.1516 16.863 12.1735 15.2692 12.2581L11.3725 12.4651C10.8714 12.4917 10.407 12.7359 10.101 13.1337L7.72163 16.2264C6.74837 17.4915 4.72652 16.8631 4.64187 15.2692L4.4349 11.3726C4.40828 10.8715 4.16407 10.407 3.76633 10.101L0.673574 7.72168C-0.59151 6.74842 0.0368999 4.72657 1.6308 4.64191L5.5274 4.43494C6.02852 4.40833 6.493 4.16412 6.79899 3.76638L9.17832 0.67362Z" fill="#071A27"/>
</svg>
